{"accessors" : [{"bufferView" : 0, "byteOffset" : 0, "componentType" : 5123, "count" : 2268, "type" : "SCALAR", "max" : [2257], "min" : [0]}, {"bufferView" : 1, "byteOffset" : 0, "componentType" : 5126, "count" : 2258, "type" : "VEC3", "max" : [22.87325668334961, 14.884632110595703, 28.076005935668945], "min" : [-22.87325668334961, -17.79812240600586, -29.50373077392578], "name" : "POSITION"}, {"bufferView" : 1, "byteOffset" : 12, "componentType" : 5126, "count" : 2258, "type" : "VEC3", "max" : [0.9968549609184265, 0.9985461831092834, 0.9854303002357483], "min" : [-0.9968549609184265, -1.0000044107437134, -0.9524027109146118], "name" : "NORMAL"}, {"bufferView" : 1, "byteOffset" : 24, "componentType" : 5126, "count" : 2258, "type" : "VEC2", "max" : [0.9675840139389038, 1.9349429607391357], "min" : [0.10568899661302567, 1.0521700382232666], "name" : "TEXCOORD_0"}], "asset" : {"generator" : "Aspose.3D 24.1.0", "version" : "2.0"}, "buffers" : [{"uri" : "data:application/octet-stream;base64,", "byteLength" : 77120}], "bufferViews" : [{"buffer" : 0, "byteOffset" : 0, "byteLength" : 4536, "target" : 34963}, {"buffer" : 0, "byteOffset" : 4540, "byteLength" : 72576, "byteStride" : 32, "target" : 34962}], "images" : [{"uri" : "data:image/png;base64,"}], "materials" : [{"name" : "lambert2SG", "pbrMetallicRoughness" : {"baseColorFactor" : [1, 1, 1, 1], "baseColorTexture" : {"index" : 0, "texCoord" : 0}, "metallicFactor" : 0, "roughnessFactor" : 1}, "emissiveFactor" : [0, 0, 0], "alphaMode" : "OPAQUE", "doubleSided" : false}], "meshes" : [{"primitives" : [{"attributes" : {"POSITION" : 1, "NORMAL" : 2, "TEXCOORD_0" : 3}, "indices" : 0, "material" : 0, "mode" : 4}]}], "nodes" : [{"mesh" : 0, "name" : "Geo_Frog"}], "samplers" : [{"magFilter" : 9729, "minFilter" : 9986, "wrapS" : 10497, "wrapT" : 10497}], "scene" : 0, "scenes" : [{"nodes" : [0]}], "textures" : [{"sampler" : 0, "source" : 0, "name" : ""}]}