# Blender 4.1.1
# www.blender.org
mtllib butoon.mtl
o buttonSquare
v -0.300000 0.000000 0.238763
v -0.300000 0.050000 0.238763
v -0.238763 0.000000 0.300000
v -0.238763 0.050000 0.300000
v -0.200000 0.050000 0.200000
v 0.200000 0.050000 0.200000
v -0.200000 0.100000 0.200000
v 0.200000 0.100000 0.200000
v 0.300000 0.050000 0.238763
v 0.238763 0.050000 0.300000
v 0.250000 0.100000 0.188763
v 0.188763 0.100000 0.250000
v -0.188763 0.100000 -0.250000
v -0.250000 0.100000 -0.188763
v -0.238763 0.050000 -0.300000
v -0.300000 0.050000 -0.238763
v 0.300000 0.050000 -0.238763
v 0.250000 0.100000 -0.188763
v 0.200000 0.050000 -0.200000
v -0.200000 0.050000 -0.200000
v 0.200000 0.100000 -0.200000
v -0.200000 0.100000 -0.200000
v 0.300000 0.000000 0.238763
v 0.238763 0.000000 0.300000
v 0.300000 -0.000000 -0.238763
v -0.238763 -0.000000 -0.300000
v 0.238763 -0.000000 -0.300000
v 0.238763 0.050000 -0.300000
v -0.188763 0.100000 0.250000
v -0.250000 0.100000 0.188763
v 0.188763 0.100000 -0.250000
v -0.300000 -0.000000 -0.238763
vn -0.3832 -0.0000 0.9237
vn -0.9237 -0.0000 0.3832
vn 0.6018 0.7788 0.1770
vn 0.2627 0.8008 0.5382
vn 0.5382 0.8009 0.2627
vn 0.1770 0.7788 0.6018
vn -0.2627 0.8008 -0.5382
vn -0.6018 0.7788 -0.1770
vn -0.1770 0.7788 -0.6018
vn -0.5382 0.8009 -0.2627
vn 0.6024 0.7785 -0.1761
vn 0.5388 0.8007 0.2618
vn 0.5388 0.8007 -0.2619
vn 0.6024 0.7785 0.1761
vn 0.3832 -0.0000 0.9237
vn 0.9237 -0.0000 0.3832
vn 0.9241 -0.0000 0.3822
vn 0.9241 -0.0000 -0.3822
vn -0.3822 -0.0000 -0.9241
vn 0.3822 -0.0000 -0.9241
vn -0.6018 0.7788 0.1770
vn -0.2627 0.8009 0.5382
vn -0.1770 0.7788 0.6018
vn -0.5382 0.8009 0.2627
vn -0.5388 0.8007 -0.2618
vn -0.6024 0.7785 0.1761
vn -0.6024 0.7785 -0.1761
vn -0.5388 0.8007 0.2619
vn -0.2618 0.8007 -0.5388
vn 0.1761 0.7785 -0.6024
vn 0.2618 0.8007 -0.5388
vn -0.1761 0.7785 -0.6024
vn -0.9241 -0.0000 0.3822
vn -0.9241 -0.0000 -0.3822
vn 0.3832 -0.0000 -0.9237
vn 0.9237 -0.0000 -0.3832
vn 0.3822 -0.0000 0.9241
vn -0.3822 -0.0000 0.9241
vn 0.2627 0.8009 -0.5382
vn 0.6018 0.7788 -0.1770
vn 0.5382 0.8009 -0.2627
vn 0.1770 0.7788 -0.6018
vn -0.0000 -0.0000 -1.0000
vn -1.0000 -0.0000 -0.0000
vn -0.9237 -0.0000 -0.3832
vn -0.3832 -0.0000 -0.9237
vn -0.0000 -1.0000 -0.0000
vn -0.2155 -0.9241 0.3156
vn -0.0849 -0.9241 -0.3727
vn 0.2593 -0.9241 -0.2808
vn 0.1761 0.7785 0.6024
vn -0.2618 0.8007 0.5388
vn 0.2619 0.8007 0.5388
vn -0.1761 0.7785 0.6024
vn -0.0000 1.0000 -0.0000
vn -0.0000 -0.0000 1.0000
vn 1.0000 -0.0000 -0.0000
vn 0.0849 -0.9241 0.3727
vn 0.2155 -0.9241 -0.3156
vt 1.704774 -0.000000
vt -1.704774 1.968504
vt -1.704774 -0.000000
vt 1.704774 1.968504
vt 1.704774 -7.700188
vt -1.704774 -11.109740
vt 1.704774 -11.109740
vt -1.704774 -7.700188
vt 7.431604 -4.175828
vt -9.400108 -6.959713
vt 9.400108 -6.959713
vt -7.431604 -4.175828
vt 1.704774 -0.000000
vt -1.704774 -0.000000
vt -9.400108 1.968504
vt 9.400108 -0.000000
vt 9.400108 1.968504
vt -9.400108 -0.000000
vt -9.400108 -0.000000
vt 9.400108 -0.000000
vt 9.400108 -0.000000
vt -9.400108 -0.000000
vt -1.704774 0.000000
vt 1.704774 0.000000
vt -9.400108 0.000000
vt 9.400108 0.000000
vt 0.000000 0.000000
vt 7.874016 -7.874016
vt -7.874016 -7.874016
vt -1.704774 -0.000000
vt 1.704774 -0.000000
vt 9.400108 11.811020
vt 11.811020 -9.400108
vt 11.811020 9.400108
vt 9.400108 -11.811020
vt -9.400108 -11.811020
vt -9.400108 11.811020
vt -11.811020 9.400108
vt -11.811020 -9.400108
vt -9.842520 -7.431604
vt -9.842520 7.431604
vt -7.431604 -9.842520
vt -7.874016 7.874016
vt -7.431604 9.842520
vt 7.431604 -9.842520
vt 9.842520 -7.431604
vt 7.874016 7.874016
vt 7.431604 9.842520
vt 9.842520 7.431604
s 0
usemtl metal
f 3/1/1 2/2/2 1/3/2
f 2/2/2 3/1/1 4/4/1
f 11/5/3 10/6/4 9/7/5
f 10/6/4 11/5/3 12/8/6
f 15/6/7 14/5/8 13/8/9
f 14/5/8 15/6/7 16/7/10
f 18/9/11 9/10/12 17/11/13
f 9/10/12 18/9/11 11/12/14
f 10/2/15 23/13/16 9/4/16
f 23/13/16 10/2/15 24/14/15
f 9/15/17 25/16/18 17/17/18
f 25/16/18 9/15/17 23/18/17
f 15/17/19 27/19/20 26/20/19
f 27/19/20 15/17/19 28/15/20
f 30/8/21 4/7/22 29/5/23
f 4/7/22 30/8/21 2/6/24
f 16/10/25 30/9/26 14/12/27
f 30/9/26 16/10/25 2/11/28
f 15/11/29 31/12/30 28/10/31
f 31/12/30 15/11/29 13/9/32
f 1/21/33 16/15/34 32/22/34
f 16/15/34 1/21/33 2/17/33
f 28/4/35 25/23/36 27/24/35
f 25/23/36 28/4/35 17/2/36
f 10/17/37 3/25/38 24/26/37
f 3/25/38 10/17/37 4/15/38
f 28/7/39 18/8/40 17/6/41
f 18/8/40 28/7/39 31/5/42
f 19/27/43 22/28/43 21/29/43
f 5/27/44 22/28/44 20/27/44
f 16/4/45 26/30/46 32/31/45
f 26/30/46 16/4/45 15/2/46
f 24/32/47 25/33/47 23/34/47
f 25/33/47 24/32/47 27/35/47
f 20/27/47 6/27/47 5/27/47
f 24/26/48 26/20/49 27/19/50
f 26/36/47 3/37/47 1/38/47
f 26/36/47 1/38/47 32/39/47
f 12/9/51 4/10/52 10/11/53
f 4/10/52 12/9/51 29/12/54
f 18/40/55 21/29/55 11/41/55
f 21/29/55 18/40/55 31/42/55
f 8/43/55 11/41/55 21/29/55
f 11/41/55 8/43/55 12/44/55
f 21/29/55 31/42/55 22/28/55
f 22/28/55 31/42/55 13/45/55
f 22/28/55 13/45/55 14/46/55
f 12/44/55 8/43/55 7/47/55
f 22/28/55 14/46/55 7/47/55
f 12/44/55 7/47/55 29/48/55
f 30/49/55 7/47/55 14/46/55
f 29/48/55 7/47/55 30/49/55
f 8/43/56 5/27/56 6/27/56
f 8/43/57 19/27/57 21/29/57
f 19/27/43 20/27/43 22/28/43
f 5/27/44 7/47/44 22/28/44
f 20/27/47 19/27/47 6/27/47
f 24/26/58 3/37/47 26/20/59
f 8/43/56 7/47/56 5/27/56
f 8/43/57 6/27/57 19/27/57
