# Blender 4.1.1
# www.blender.org
mtllib top.mtl
o buttonSquare.001
v -0.200000 0.100000 0.200000
v 0.200000 0.100000 0.200000
v 0.200000 0.100000 -0.200000
v -0.200000 0.100000 -0.200000
v 0.150000 0.150000 -0.150000
v 0.150000 0.150000 0.150000
v -0.150000 0.150000 -0.150000
v -0.150000 0.150000 0.150000
vn -0.0000 1.0000 -0.0000
vn -0.0000 0.7071 0.7071
vn -0.7071 0.7071 -0.0000
vn 0.7071 0.7071 -0.0000
vn -0.0000 0.7071 -0.7071
vn -0.0000 -1.0000 -0.0000
vt 5.905512 -5.905512
vt -5.905512 5.905512
vt -5.905512 -5.905512
vt 5.905512 5.905512
vt 5.905512 -1.391943
vt -7.874016 -4.175828
vt 7.874016 -4.175828
vt -5.905512 -1.391943
s 0
usemtl heart
f 7/1/1 6/2/1 5/3/1
f 6/2/1 7/1/1 8/4/1
f 6/5/2 1/6/2 2/7/2
f 1/6/2 6/5/2 8/8/2
f 4/6/3 8/5/3 7/8/3
f 8/5/3 4/6/3 1/7/3
f 5/5/4 2/6/4 3/7/4
f 2/6/4 5/5/4 6/8/4
f 4/7/5 5/8/5 3/6/5
f 5/8/5 4/7/5 7/5/5
f 1/7/6 4/6/6 3/6/6 2/6/6
